<svg width="168" height="40" viewBox="0 0 168 40" fill="none" xmlns="http://www.w3.org/2000/svg">
  <g transform="translate(0, 2)">
    <path d="M18 6c2.5-1 5.5-0.5 7.5 1.5 1.5-0.5 3-1.2 4-2.2-0.5 1.5-1.5 2.8-2.8 3.6 1.3-0.1 2.5-0.5 3.6-1-0.9 1.3-2 2.4-3.3 3.3v0.8c0 8.5-6.5 18.3-18.3 18.3-3.6 0-7-1-9.8-2.9 0.5 0.1 1 0.1 1.5 0.1 3 0 5.8-1 8-2.8-2.8-0.1-5.2-1.9-6-4.5 1 0.2 2 0.1 2.8-0.1-3-0.6-5.2-3.2-5.2-6.4v-0.1c0.9 0.5 1.9 0.8 3 0.8C1.2 13 0.2 10.5 1.2 8.3c3.2 4 8 6.5 13.4 6.8-0.1-0.5-0.1-0.9-0.1-1.4 0-3.6 2.9-6.5 6.5-6.5" stroke="#1a1a1a" stroke-width="1.5" fill="none" transform="scale(0.85) translate(2, 4)" stroke-linecap="round" stroke-linejoin="round" opacity="0.9"/>
    <path d="M11 16l-4 4 4 4" stroke="#1a1a1a" stroke-width="1.8" stroke-linecap="round" stroke-linejoin="round" opacity="0.7"/>
    <path d="M21 16l4 4-4 4" stroke="#1a1a1a" stroke-width="1.8" stroke-linecap="round" stroke-linejoin="round" opacity="0.7"/>
    <path d="M18 14l-4 12" stroke="#1a1a1a" stroke-width="1.5" stroke-linecap="round" opacity="0.5"/>
  </g>
  <text x="38" y="27.5" font-family="Inter, -apple-system, BlinkMacSystemFont, sans-serif" font-weight="600" font-size="21" letter-spacing="-0.5">
    <tspan fill="#8A8A95">Api</tspan>
    <tspan fill="#1a1a1a">Twitter</tspan>
  </text>
</svg>
